<svg width="28" height="29" viewBox="0 0 28 29" fill="none" xmlns="http://www.w3.org/2000/svg">
    <path d="M14 22.4688C14 22.4688 3.0625 16.125 3.0625 8.42188C3.06272 7.0604 3.51821 5.74101 4.35153 4.68804C5.18485 3.63507 6.34456 2.91352 7.63349 2.64606C8.92241 2.3786 10.261 2.58174 11.4217 3.22095C12.5823 3.86016 13.4934 4.89598 14 6.15229L14 6.1523C14.5066 4.89599 15.4177 3.86017 16.5783 3.22096C17.739 2.58175 19.0776 2.3786 20.3665 2.64606C21.6554 2.91352 22.8151 3.63507 23.6485 4.68804C24.4818 5.74101 24.9373 7.0604 24.9375 8.42188C24.9375 16.125 14 22.4688 14 22.4688Z" stroke="#9B8BDA" stroke-width="2" stroke-linecap="round" stroke-linejoin="round"/>
</svg>
