<svg width="263" height="180" viewBox="0 0 263 180" fill="none" xmlns="http://www.w3.org/2000/svg">
    <path d="M37.5762 177.442H36.668V171.421L34.8467 172.09V171.27L37.4346 170.298H37.5762V177.442ZM40.4961 178.052H39.7197L42.6885 170.332H43.46L40.4961 178.052ZM47.3125 177.442H46.4043V171.421L44.583 172.09V171.27L47.1709 170.298H47.3125V177.442ZM50.374 173.877L50.7354 170.332H54.3779V171.167H51.502L51.2871 173.106C51.6354 172.901 52.0309 172.798 52.4736 172.798C53.1214 172.798 53.6357 173.013 54.0166 173.443C54.3975 173.869 54.5879 174.447 54.5879 175.176C54.5879 175.908 54.3893 176.486 53.9922 176.909C53.5983 177.329 53.0465 177.539 52.3369 177.539C51.7087 177.539 51.196 177.365 50.7988 177.017C50.4017 176.669 50.1755 176.187 50.1201 175.572H50.9746C51.0299 175.978 51.1748 176.286 51.4092 176.494C51.6436 176.699 51.9528 176.802 52.3369 176.802C52.7568 176.802 53.0856 176.659 53.3232 176.372C53.5641 176.086 53.6846 175.69 53.6846 175.186C53.6846 174.711 53.5544 174.33 53.2939 174.043C53.0368 173.753 52.6934 173.609 52.2637 173.609C51.8698 173.609 51.5605 173.695 51.3359 173.867L51.0967 174.063L50.374 173.877Z" fill="#A3A3A3"/>
    <path d="M145.573 177.442H140.915V176.792L143.376 174.058C143.741 173.644 143.991 173.309 144.128 173.052C144.268 172.792 144.338 172.523 144.338 172.246C144.338 171.875 144.226 171.571 144.001 171.333C143.776 171.096 143.477 170.977 143.103 170.977C142.653 170.977 142.303 171.105 142.053 171.363C141.805 171.616 141.682 171.971 141.682 172.427H140.778C140.778 171.773 140.988 171.244 141.408 170.84C141.831 170.436 142.396 170.235 143.103 170.235C143.763 170.235 144.286 170.409 144.67 170.757C145.054 171.102 145.246 171.563 145.246 172.139C145.246 172.839 144.8 173.672 143.908 174.639L142.004 176.704H145.573V177.442ZM146.804 178.052H146.027L148.996 170.332H149.768L146.804 178.052ZM153.62 177.442H152.712V171.421L150.891 172.09V171.27L153.479 170.298H153.62V177.442Z" fill="#A3A3A3"/>
    <path d="M247.266 177.442H242.607V176.792L245.068 174.058C245.433 173.644 245.684 173.309 245.82 173.052C245.96 172.792 246.03 172.523 246.03 172.246C246.03 171.875 245.918 171.571 245.693 171.333C245.469 171.096 245.169 170.977 244.795 170.977C244.346 170.977 243.996 171.105 243.745 171.363C243.498 171.616 243.374 171.971 243.374 172.427H242.471C242.471 171.773 242.681 171.244 243.101 170.84C243.524 170.436 244.089 170.235 244.795 170.235C245.456 170.235 245.978 170.409 246.362 170.757C246.746 171.102 246.938 171.563 246.938 172.139C246.938 172.839 246.493 173.672 245.601 174.639L243.696 176.704H247.266V177.442ZM248.496 178.052H247.72L250.688 170.332H251.46L248.496 178.052ZM255.312 177.442H254.404V171.421L252.583 172.09V171.27L255.171 170.298H255.312V177.442ZM258.374 173.877L258.735 170.332H262.378V171.167H259.502L259.287 173.106C259.635 172.901 260.031 172.798 260.474 172.798C261.121 172.798 261.636 173.013 262.017 173.443C262.397 173.869 262.588 174.447 262.588 175.176C262.588 175.908 262.389 176.486 261.992 176.909C261.598 177.329 261.047 177.539 260.337 177.539C259.709 177.539 259.196 177.365 258.799 177.017C258.402 176.669 258.175 176.187 258.12 175.572H258.975C259.03 175.978 259.175 176.286 259.409 176.494C259.644 176.699 259.953 176.802 260.337 176.802C260.757 176.802 261.086 176.659 261.323 176.372C261.564 176.086 261.685 175.69 261.685 175.186C261.685 174.711 261.554 174.33 261.294 174.043C261.037 173.753 260.693 173.609 260.264 173.609C259.87 173.609 259.561 173.695 259.336 173.867L259.097 174.063L258.374 173.877Z" fill="#A3A3A3"/>
    <path d="M33.4336 159.428C33.4336 160.486 33.2529 161.272 32.8916 161.786C32.5303 162.3 31.9655 162.558 31.1973 162.558C30.4388 162.558 29.8773 162.307 29.5127 161.806C29.1481 161.301 28.9593 160.549 28.9463 159.55V158.344C28.9463 157.299 29.127 156.522 29.4883 156.015C29.8496 155.507 30.416 155.253 31.1875 155.253C31.9525 155.253 32.5156 155.499 32.877 155.99C33.2383 156.479 33.4238 157.234 33.4336 158.256V159.428ZM32.5303 158.192C32.5303 157.427 32.4229 156.871 32.208 156.522C31.9932 156.171 31.653 155.995 31.1875 155.995C30.7253 155.995 30.3883 156.169 30.1768 156.518C29.9652 156.866 29.8561 157.401 29.8496 158.124V159.569C29.8496 160.338 29.9603 160.906 30.1816 161.273C30.4062 161.638 30.7448 161.82 31.1973 161.82C31.6432 161.82 31.9736 161.648 32.1885 161.303C32.4066 160.958 32.5205 160.414 32.5303 159.672V158.192Z" fill="#A3A3A3"/>
    <path d="M5.55762 110.524H0.899414V109.875L3.36035 107.14C3.72493 106.727 3.97559 106.391 4.1123 106.134C4.25228 105.874 4.32227 105.605 4.32227 105.329C4.32227 104.958 4.20996 104.653 3.98535 104.416C3.76074 104.178 3.46126 104.059 3.08691 104.059C2.6377 104.059 2.28776 104.188 2.03711 104.445C1.78971 104.699 1.66602 105.054 1.66602 105.509H0.762695C0.762695 104.855 0.972656 104.326 1.39258 103.922C1.81576 103.519 2.38053 103.317 3.08691 103.317C3.74772 103.317 4.27018 103.491 4.6543 103.839C5.03841 104.184 5.23047 104.645 5.23047 105.221C5.23047 105.921 4.78451 106.754 3.89258 107.721L1.98828 109.787H5.55762V110.524ZM10.9727 107.492C10.9727 108.55 10.792 109.336 10.4307 109.85C10.0693 110.364 9.50456 110.622 8.73633 110.622C7.97786 110.622 7.41634 110.371 7.05176 109.87C6.68717 109.365 6.49837 108.613 6.48535 107.614V106.408C6.48535 105.363 6.66602 104.586 7.02734 104.079C7.38867 103.571 7.95508 103.317 8.72656 103.317C9.49154 103.317 10.0547 103.563 10.416 104.054C10.7773 104.542 10.9629 105.298 10.9727 106.32V107.492ZM10.0693 106.256C10.0693 105.491 9.96191 104.935 9.74707 104.586C9.53223 104.235 9.19206 104.059 8.72656 104.059C8.26432 104.059 7.92741 104.233 7.71582 104.582C7.50423 104.93 7.39518 105.465 7.38867 106.188V107.633C7.38867 108.402 7.49935 108.97 7.7207 109.337C7.94531 109.702 8.28385 109.884 8.73633 109.884C9.18229 109.884 9.5127 109.712 9.72754 109.367C9.94564 109.022 10.0596 108.478 10.0693 107.736V106.256ZM16.5879 107.492C16.5879 108.55 16.4072 109.336 16.0459 109.85C15.6846 110.364 15.1198 110.622 14.3516 110.622C13.5931 110.622 13.0316 110.371 12.667 109.87C12.3024 109.365 12.1136 108.613 12.1006 107.614V106.408C12.1006 105.363 12.2812 104.586 12.6426 104.079C13.0039 103.571 13.5703 103.317 14.3418 103.317C15.1068 103.317 15.6699 103.563 16.0312 104.054C16.3926 104.542 16.5781 105.298 16.5879 106.32V107.492ZM15.6846 106.256C15.6846 105.491 15.5771 104.935 15.3623 104.586C15.1475 104.235 14.8073 104.059 14.3418 104.059C13.8796 104.059 13.5426 104.233 13.3311 104.582C13.1195 104.93 13.0104 105.465 13.0039 106.188V107.633C13.0039 108.402 13.1146 108.97 13.3359 109.337C13.5605 109.702 13.8991 109.884 14.3516 109.884C14.7975 109.884 15.1279 109.712 15.3428 109.367C15.5609 109.022 15.6748 108.478 15.6846 107.736V106.256ZM22.2031 107.492C22.2031 108.55 22.0225 109.336 21.6611 109.85C21.2998 110.364 20.735 110.622 19.9668 110.622C19.2083 110.622 18.6468 110.371 18.2822 109.87C17.9176 109.365 17.7288 108.613 17.7158 107.614V106.408C17.7158 105.363 17.8965 104.586 18.2578 104.079C18.6191 103.571 19.1855 103.317 19.957 103.317C20.722 103.317 21.2852 103.563 21.6465 104.054C22.0078 104.542 22.1934 105.298 22.2031 106.32V107.492ZM21.2998 106.256C21.2998 105.491 21.1924 104.935 20.9775 104.586C20.7627 104.235 20.4225 104.059 19.957 104.059C19.4948 104.059 19.1579 104.233 18.9463 104.582C18.7347 104.93 18.6257 105.465 18.6191 106.188V107.633C18.6191 108.402 18.7298 108.97 18.9512 109.337C19.1758 109.702 19.5143 109.884 19.9668 109.884C20.4128 109.884 20.7432 109.712 20.958 109.367C21.1761 109.022 21.29 108.478 21.2998 107.736V106.256ZM27.8184 107.492C27.8184 108.55 27.6377 109.336 27.2764 109.85C26.915 110.364 26.3503 110.622 25.582 110.622C24.8236 110.622 24.262 110.371 23.8975 109.87C23.5329 109.365 23.3441 108.613 23.3311 107.614V106.408C23.3311 105.363 23.5117 104.586 23.873 104.079C24.2344 103.571 24.8008 103.317 25.5723 103.317C26.3372 103.317 26.9004 103.563 27.2617 104.054C27.623 104.542 27.8086 105.298 27.8184 106.32V107.492ZM26.915 106.256C26.915 105.491 26.8076 104.935 26.5928 104.586C26.3779 104.235 26.0378 104.059 25.5723 104.059C25.11 104.059 24.7731 104.233 24.5615 104.582C24.3499 104.93 24.2409 105.465 24.2344 106.188V107.633C24.2344 108.402 24.3451 108.97 24.5664 109.337C24.791 109.702 25.1296 109.884 25.582 109.884C26.028 109.884 26.3584 109.712 26.5732 109.367C26.7913 109.022 26.9053 108.478 26.915 107.736V106.256ZM33.4336 107.492C33.4336 108.55 33.2529 109.336 32.8916 109.85C32.5303 110.364 31.9655 110.622 31.1973 110.622C30.4388 110.622 29.8773 110.371 29.5127 109.87C29.1481 109.365 28.9593 108.613 28.9463 107.614V106.408C28.9463 105.363 29.127 104.586 29.4883 104.079C29.8496 103.571 30.416 103.317 31.1875 103.317C31.9525 103.317 32.5156 103.563 32.877 104.054C33.2383 104.542 33.4238 105.298 33.4336 106.32V107.492ZM32.5303 106.256C32.5303 105.491 32.4229 104.935 32.208 104.586C31.9932 104.235 31.653 104.059 31.1875 104.059C30.7253 104.059 30.3883 104.233 30.1768 104.582C29.9652 104.93 29.8561 105.465 29.8496 106.188V107.633C29.8496 108.402 29.9603 108.97 30.1816 109.337C30.4062 109.702 30.7448 109.884 31.1973 109.884C31.6432 109.884 31.9736 109.712 32.1885 109.367C32.4066 109.022 32.5205 108.478 32.5303 107.736V106.256Z" fill="#A3A3A3"/>
    <path d="M4.71289 57.199H5.69922V57.9363H4.71289V59.5867H3.80469V57.9363H0.567383V57.4041L3.75098 52.4773H4.71289V57.199ZM1.59277 57.199H3.80469V53.7126L3.69727 53.908L1.59277 57.199ZM10.9727 56.5544C10.9727 57.6124 10.792 58.3985 10.4307 58.9128C10.0693 59.4272 9.50456 59.6843 8.73633 59.6843C7.97786 59.6843 7.41634 59.4337 7.05176 58.9324C6.68717 58.4278 6.49837 57.6759 6.48535 56.6765V55.4705C6.48535 54.4255 6.66602 53.6492 7.02734 53.1414C7.38867 52.6335 7.95508 52.3796 8.72656 52.3796C9.49154 52.3796 10.0547 52.6254 10.416 53.1169C10.7773 53.6052 10.9629 54.3604 10.9727 55.3826V56.5544ZM10.0693 55.3191C10.0693 54.5541 9.96191 53.9975 9.74707 53.6492C9.53223 53.2976 9.19206 53.1218 8.72656 53.1218C8.26432 53.1218 7.92741 53.296 7.71582 53.6443C7.50423 53.9926 7.39518 54.5281 7.38867 55.2507V56.696C7.38867 57.4643 7.49935 58.0323 7.7207 58.4001C7.94531 58.7647 8.28385 58.947 8.73633 58.947C9.18229 58.947 9.5127 58.7745 9.72754 58.4294C9.94564 58.0844 10.0596 57.5408 10.0693 56.7986V55.3191ZM16.5879 56.5544C16.5879 57.6124 16.4072 58.3985 16.0459 58.9128C15.6846 59.4272 15.1198 59.6843 14.3516 59.6843C13.5931 59.6843 13.0316 59.4337 12.667 58.9324C12.3024 58.4278 12.1136 57.6759 12.1006 56.6765V55.4705C12.1006 54.4255 12.2812 53.6492 12.6426 53.1414C13.0039 52.6335 13.5703 52.3796 14.3418 52.3796C15.1068 52.3796 15.6699 52.6254 16.0312 53.1169C16.3926 53.6052 16.5781 54.3604 16.5879 55.3826V56.5544ZM15.6846 55.3191C15.6846 54.5541 15.5771 53.9975 15.3623 53.6492C15.1475 53.2976 14.8073 53.1218 14.3418 53.1218C13.8796 53.1218 13.5426 53.296 13.3311 53.6443C13.1195 53.9926 13.0104 54.5281 13.0039 55.2507V56.696C13.0039 57.4643 13.1146 58.0323 13.3359 58.4001C13.5605 58.7647 13.8991 58.947 14.3516 58.947C14.7975 58.947 15.1279 58.7745 15.3428 58.4294C15.5609 58.0844 15.6748 57.5408 15.6846 56.7986V55.3191ZM22.2031 56.5544C22.2031 57.6124 22.0225 58.3985 21.6611 58.9128C21.2998 59.4272 20.735 59.6843 19.9668 59.6843C19.2083 59.6843 18.6468 59.4337 18.2822 58.9324C17.9176 58.4278 17.7288 57.6759 17.7158 56.6765V55.4705C17.7158 54.4255 17.8965 53.6492 18.2578 53.1414C18.6191 52.6335 19.1855 52.3796 19.957 52.3796C20.722 52.3796 21.2852 52.6254 21.6465 53.1169C22.0078 53.6052 22.1934 54.3604 22.2031 55.3826V56.5544ZM21.2998 55.3191C21.2998 54.5541 21.1924 53.9975 20.9775 53.6492C20.7627 53.2976 20.4225 53.1218 19.957 53.1218C19.4948 53.1218 19.1579 53.296 18.9463 53.6443C18.7347 53.9926 18.6257 54.5281 18.6191 55.2507V56.696C18.6191 57.4643 18.7298 58.0323 18.9512 58.4001C19.1758 58.7647 19.5143 58.947 19.9668 58.947C20.4128 58.947 20.7432 58.7745 20.958 58.4294C21.1761 58.0844 21.29 57.5408 21.2998 56.7986V55.3191ZM27.8184 56.5544C27.8184 57.6124 27.6377 58.3985 27.2764 58.9128C26.915 59.4272 26.3503 59.6843 25.582 59.6843C24.8236 59.6843 24.262 59.4337 23.8975 58.9324C23.5329 58.4278 23.3441 57.6759 23.3311 56.6765V55.4705C23.3311 54.4255 23.5117 53.6492 23.873 53.1414C24.2344 52.6335 24.8008 52.3796 25.5723 52.3796C26.3372 52.3796 26.9004 52.6254 27.2617 53.1169C27.623 53.6052 27.8086 54.3604 27.8184 55.3826V56.5544ZM26.915 55.3191C26.915 54.5541 26.8076 53.9975 26.5928 53.6492C26.3779 53.2976 26.0378 53.1218 25.5723 53.1218C25.11 53.1218 24.7731 53.296 24.5615 53.6443C24.3499 53.9926 24.2409 54.5281 24.2344 55.2507V56.696C24.2344 57.4643 24.3451 58.0323 24.5664 58.4001C24.791 58.7647 25.1296 58.947 25.582 58.947C26.028 58.947 26.3584 58.7745 26.5732 58.4294C26.7913 58.0844 26.9053 57.5408 26.915 56.7986V55.3191ZM33.4336 56.5544C33.4336 57.6124 33.2529 58.3985 32.8916 58.9128C32.5303 59.4272 31.9655 59.6843 31.1973 59.6843C30.4388 59.6843 29.8773 59.4337 29.5127 58.9324C29.1481 58.4278 28.9593 57.6759 28.9463 56.6765V55.4705C28.9463 54.4255 29.127 53.6492 29.4883 53.1414C29.8496 52.6335 30.416 52.3796 31.1875 52.3796C31.9525 52.3796 32.5156 52.6254 32.877 53.1169C33.2383 53.6052 33.4238 54.3604 33.4336 55.3826V56.5544ZM32.5303 55.3191C32.5303 54.5541 32.4229 53.9975 32.208 53.6492C31.9932 53.2976 31.653 53.1218 31.1875 53.1218C30.7253 53.1218 30.3883 53.296 30.1768 53.6443C29.9652 53.9926 29.8561 54.5281 29.8496 55.2507V56.696C29.8496 57.4643 29.9603 58.0323 30.1816 58.4001C30.4062 58.7647 30.7448 58.947 31.1973 58.947C31.6432 58.947 31.9736 58.7745 32.1885 58.4294C32.4066 58.0844 32.5205 57.5408 32.5303 56.7986V55.3191Z" fill="#A3A3A3"/>
    <path d="M4.44434 1.53516V2.30176H4.27832C3.5752 2.31478 3.0153 2.52311 2.59863 2.92676C2.18197 3.3304 1.94108 3.89844 1.87598 4.63086C2.25033 4.20117 2.76139 3.98633 3.40918 3.98633C4.02767 3.98633 4.52083 4.20443 4.88867 4.64062C5.25977 5.07682 5.44531 5.63997 5.44531 6.33008C5.44531 7.0625 5.24512 7.64844 4.84473 8.08789C4.44759 8.52734 3.91374 8.74707 3.24316 8.74707C2.56283 8.74707 2.01107 8.48665 1.58789 7.96582C1.16471 7.44173 0.953125 6.7679 0.953125 5.94434V5.59766C0.953125 4.28906 1.23145 3.28971 1.78809 2.59961C2.34798 1.90625 3.17969 1.55143 4.2832 1.53516H4.44434ZM3.25781 4.73828C2.94857 4.73828 2.66374 4.83105 2.40332 5.0166C2.1429 5.20215 1.96224 5.4349 1.86133 5.71484V6.04688C1.86133 6.63281 1.99316 7.10482 2.25684 7.46289C2.52051 7.82096 2.84928 8 3.24316 8C3.65007 8 3.96908 7.85026 4.2002 7.55078C4.43457 7.2513 4.55176 6.85905 4.55176 6.37402C4.55176 5.88574 4.43294 5.49186 4.19531 5.19238C3.96094 4.88965 3.64844 4.73828 3.25781 4.73828ZM10.9727 5.61719C10.9727 6.67513 10.792 7.46126 10.4307 7.97559C10.0693 8.48991 9.50456 8.74707 8.73633 8.74707C7.97786 8.74707 7.41634 8.49642 7.05176 7.99512C6.68717 7.49056 6.49837 6.73861 6.48535 5.73926V4.5332C6.48535 3.48828 6.66602 2.71191 7.02734 2.2041C7.38867 1.69629 7.95508 1.44238 8.72656 1.44238C9.49154 1.44238 10.0547 1.68815 10.416 2.17969C10.7773 2.66797 10.9629 3.42318 10.9727 4.44531V5.61719ZM10.0693 4.38184C10.0693 3.61686 9.96191 3.06022 9.74707 2.71191C9.53223 2.36035 9.19206 2.18457 8.72656 2.18457C8.26432 2.18457 7.92741 2.35872 7.71582 2.70703C7.50423 3.05534 7.39518 3.59082 7.38867 4.31348V5.75879C7.38867 6.52702 7.49935 7.09505 7.7207 7.46289C7.94531 7.82747 8.28385 8.00977 8.73633 8.00977C9.18229 8.00977 9.5127 7.83724 9.72754 7.49219C9.94564 7.14714 10.0596 6.60352 10.0693 5.86133V4.38184ZM16.5879 5.61719C16.5879 6.67513 16.4072 7.46126 16.0459 7.97559C15.6846 8.48991 15.1198 8.74707 14.3516 8.74707C13.5931 8.74707 13.0316 8.49642 12.667 7.99512C12.3024 7.49056 12.1136 6.73861 12.1006 5.73926V4.5332C12.1006 3.48828 12.2812 2.71191 12.6426 2.2041C13.0039 1.69629 13.5703 1.44238 14.3418 1.44238C15.1068 1.44238 15.6699 1.68815 16.0312 2.17969C16.3926 2.66797 16.5781 3.42318 16.5879 4.44531V5.61719ZM15.6846 4.38184C15.6846 3.61686 15.5771 3.06022 15.3623 2.71191C15.1475 2.36035 14.8073 2.18457 14.3418 2.18457C13.8796 2.18457 13.5426 2.35872 13.3311 2.70703C13.1195 3.05534 13.0104 3.59082 13.0039 4.31348V5.75879C13.0039 6.52702 13.1146 7.09505 13.3359 7.46289C13.5605 7.82747 13.8991 8.00977 14.3516 8.00977C14.7975 8.00977 15.1279 7.83724 15.3428 7.49219C15.5609 7.14714 15.6748 6.60352 15.6846 5.86133V4.38184ZM22.2031 5.61719C22.2031 6.67513 22.0225 7.46126 21.6611 7.97559C21.2998 8.48991 20.735 8.74707 19.9668 8.74707C19.2083 8.74707 18.6468 8.49642 18.2822 7.99512C17.9176 7.49056 17.7288 6.73861 17.7158 5.73926V4.5332C17.7158 3.48828 17.8965 2.71191 18.2578 2.2041C18.6191 1.69629 19.1855 1.44238 19.957 1.44238C20.722 1.44238 21.2852 1.68815 21.6465 2.17969C22.0078 2.66797 22.1934 3.42318 22.2031 4.44531V5.61719ZM21.2998 4.38184C21.2998 3.61686 21.1924 3.06022 20.9775 2.71191C20.7627 2.36035 20.4225 2.18457 19.957 2.18457C19.4948 2.18457 19.1579 2.35872 18.9463 2.70703C18.7347 3.05534 18.6257 3.59082 18.6191 4.31348V5.75879C18.6191 6.52702 18.7298 7.09505 18.9512 7.46289C19.1758 7.82747 19.5143 8.00977 19.9668 8.00977C20.4128 8.00977 20.7432 7.83724 20.958 7.49219C21.1761 7.14714 21.29 6.60352 21.2998 5.86133V4.38184ZM27.8184 5.61719C27.8184 6.67513 27.6377 7.46126 27.2764 7.97559C26.915 8.48991 26.3503 8.74707 25.582 8.74707C24.8236 8.74707 24.262 8.49642 23.8975 7.99512C23.5329 7.49056 23.3441 6.73861 23.3311 5.73926V4.5332C23.3311 3.48828 23.5117 2.71191 23.873 2.2041C24.2344 1.69629 24.8008 1.44238 25.5723 1.44238C26.3372 1.44238 26.9004 1.68815 27.2617 2.17969C27.623 2.66797 27.8086 3.42318 27.8184 4.44531V5.61719ZM26.915 4.38184C26.915 3.61686 26.8076 3.06022 26.5928 2.71191C26.3779 2.36035 26.0378 2.18457 25.5723 2.18457C25.11 2.18457 24.7731 2.35872 24.5615 2.70703C24.3499 3.05534 24.2409 3.59082 24.2344 4.31348V5.75879C24.2344 6.52702 24.3451 7.09505 24.5664 7.46289C24.791 7.82747 25.1296 8.00977 25.582 8.00977C26.028 8.00977 26.3584 7.83724 26.5732 7.49219C26.7913 7.14714 26.9053 6.60352 26.915 5.86133V4.38184ZM33.4336 5.61719C33.4336 6.67513 33.2529 7.46126 32.8916 7.97559C32.5303 8.48991 31.9655 8.74707 31.1973 8.74707C30.4388 8.74707 29.8773 8.49642 29.5127 7.99512C29.1481 7.49056 28.9593 6.73861 28.9463 5.73926V4.5332C28.9463 3.48828 29.127 2.71191 29.4883 2.2041C29.8496 1.69629 30.416 1.44238 31.1875 1.44238C31.9525 1.44238 32.5156 1.68815 32.877 2.17969C33.2383 2.66797 33.4238 3.42318 33.4336 4.44531V5.61719ZM32.5303 4.38184C32.5303 3.61686 32.4229 3.06022 32.208 2.71191C31.9932 2.36035 31.653 2.18457 31.1875 2.18457C30.7253 2.18457 30.3883 2.35872 30.1768 2.70703C29.9652 3.05534 29.8561 3.59082 29.8496 4.31348V5.75879C29.8496 6.52702 29.9603 7.09505 30.1816 7.46289C30.4062 7.82747 30.7448 8.00977 31.1973 8.00977C31.6432 8.00977 31.9736 7.83724 32.1885 7.49219C32.4066 7.14714 32.5205 6.60352 32.5303 5.86133V4.38184Z" fill="#A3A3A3"/>
    <path d="M44 5.64331V159.454" stroke="#F0F0F0"/>
    <path d="M148 5.64331V159.454" stroke="#F0F0F0"/>
    <path d="M252 5.64331V159.454" stroke="#F0F0F0"/>
    <path d="M44 159.454H252" stroke="#F0F0F0"/>
    <path d="M44 107.518H252" stroke="#F0F0F0"/>
    <path d="M44 56.5806H252" stroke="#F0F0F0"/>
    <path d="M44 5.64331H252" stroke="#F0F0F0"/>
    <path d="M44 75.5572C44 75.5572 70 52.5854 96 52.5854C122 52.5854 122 63.5719 148 63.5719C174 63.5719 174 68.5658 200 68.5658C226 68.5658 252 81.5498 252 81.5498" stroke="#D6CCFF" stroke-width="2"/>
    <ellipse cx="44" cy="75.5571" rx="4" ry="3.99508" fill="#9B8BDA"/>
    <ellipse cx="96" cy="52.5854" rx="4" ry="3.99508" fill="#9B8BDA"/>
    <ellipse cx="148" cy="63.572" rx="4" ry="3.99508" fill="#9B8BDA"/>
    <ellipse cx="200" cy="68.5659" rx="4" ry="3.99508" fill="#9B8BDA"/>
    <ellipse cx="252" cy="81.5498" rx="4" ry="3.99508" fill="#9B8BDA"/>
</svg>