<svg width="27" height="27" viewBox="0 0 27 27" fill="none" xmlns="http://www.w3.org/2000/svg">
    <path d="M15.4462 23.625C15.2485 23.966 14.9646 24.249 14.623 24.4457C14.2814 24.6425 13.8942 24.746 13.5 24.746C13.1058 24.746 12.7186 24.6425 12.377 24.4457C12.0354 24.249 11.7515 23.966 11.5538 23.625M24.75 19.125H2.25C3.14511 19.125 4.00355 18.7694 4.63649 18.1365C5.26942 17.5035 5.625 16.6451 5.625 15.75V10.125C5.625 8.03642 6.45469 6.03338 7.93153 4.55653C9.40838 3.07968 11.4114 2.25 13.5 2.25C15.5886 2.25 17.5916 3.07968 19.0685 4.55653C20.5453 6.03338 21.375 8.03642 21.375 10.125V15.75C21.375 16.6451 21.7306 17.5035 22.3635 18.1365C22.9964 18.7694 23.8549 19.125 24.75 19.125Z" stroke="#706A6A" stroke-width="2" stroke-linecap="round" stroke-linejoin="round"/>
</svg>
