<svg width="66" height="66" viewBox="0 0 66 66" fill="none" xmlns="http://www.w3.org/2000/svg">
    <circle cx="33" cy="33" r="32" fill="#C6BFE1" stroke="#C6BFE1" stroke-width="2"/>
    <path d="M28.25 46.5833C28.9404 46.5833 29.5 46.0424 29.5 45.375C29.5 44.7077 28.9404 44.1667 28.25 44.1667C27.5596 44.1667 27 44.7077 27 45.375C27 46.0424 27.5596 46.5833 28.25 46.5833Z" stroke="white" stroke-width="2" stroke-linecap="round" stroke-linejoin="round"/>
    <path d="M42 46.5833C42.6904 46.5833 43.25 46.0424 43.25 45.375C43.25 44.7077 42.6904 44.1667 42 44.1667C41.3096 44.1667 40.75 44.7077 40.75 45.375C40.75 46.0424 41.3096 46.5833 42 46.5833Z" stroke="white" stroke-width="2" stroke-linecap="round" stroke-linejoin="round"/>
    <path d="M18.25 21.2083H23.25L26.6 37.3879C26.7143 37.9442 27.0274 38.4439 27.4844 38.7996C27.9415 39.1553 28.5134 39.3442 29.1 39.3333H41.25C41.8366 39.3442 42.4085 39.1553 42.8656 38.7996C43.3226 38.4439 43.6357 37.9442 43.75 37.3879L45.75 27.25H24.5" stroke="white" stroke-width="2" stroke-linecap="round" stroke-linejoin="round"/>
    </svg>
