<svg width="64" height="39" viewBox="0 0 64 39" fill="none" xmlns="http://www.w3.org/2000/svg">
    <path d="M50.4236 5.51706H13.2694C10.338 5.51706 7.96161 6.93937 7.96161 8.69389V30.9317C7.96161 32.6862 10.338 34.1085 13.2694 34.1085H50.4236C53.355 34.1085 55.7314 32.6862 55.7314 30.9317V8.69389C55.7314 6.93937 53.355 5.51706 50.4236 5.51706Z" stroke="#706A6A" stroke-width="2" stroke-linecap="round" stroke-linejoin="round"/>
    <path d="M34.235 19.8128H48.5659" stroke="#706A6A" stroke-width="2" stroke-linecap="round" stroke-linejoin="round"/>
    <path d="M34.235 15.0475H48.5659" stroke="#706A6A" stroke-width="2" stroke-linecap="round" stroke-linejoin="round"/>
    <path d="M34.235 24.578H48.5659" stroke="#706A6A" stroke-width="2" stroke-linecap="round" stroke-linejoin="round"/>
    <path d="M27.0695 26.9606V25.3722C27.0695 24.5297 26.734 23.7216 26.1368 23.1259C25.5395 22.5301 24.7295 22.1954 23.8849 22.1954H17.5156C16.671 22.1954 15.8609 22.5301 15.2637 23.1259C14.6665 23.7216 14.3309 24.5297 14.3309 25.3722V26.9606" stroke="#706A6A" stroke-width="2" stroke-linecap="round" stroke-linejoin="round"/>
    <path d="M20.7003 19.0186C22.4591 19.0186 23.8849 17.5963 23.8849 15.8418C23.8849 14.0873 22.4591 12.6649 20.7003 12.6649C18.9414 12.6649 17.5156 14.0873 17.5156 15.8418C17.5156 17.5963 18.9414 19.0186 20.7003 19.0186Z" stroke="#706A6A" stroke-width="2" stroke-linecap="round" stroke-linejoin="round"/>
    </svg>
