<svg width="72" height="36" viewBox="0 0 72 36" fill="none" xmlns="http://www.w3.org/2000/svg">
    <rect x="1" y="1.43488" width="70" height="32.914" rx="4" fill="white" stroke="#9B8BDA" stroke-width="2"/>
    <path d="M18.3792 20.2052C18.2544 21.2727 17.8593 22.0977 17.1938 22.68C16.5329 23.2577 15.6525 23.5465 14.5526 23.5465C13.3603 23.5465 12.4036 23.119 11.6827 22.2641C10.9663 21.4091 10.6082 20.2653 10.6082 18.8326V17.8621C10.6082 16.9239 10.7745 16.099 11.1073 15.3873C11.4447 14.6756 11.9207 14.1302 12.5353 13.7513C13.15 13.3677 13.8617 13.1759 14.6704 13.1759C15.7426 13.1759 16.6022 13.4763 17.2492 14.0771C17.8962 14.6733 18.2729 15.5005 18.3792 16.5588H17.0413C16.9257 15.7547 16.6739 15.1724 16.2857 14.8119C15.9021 14.4514 15.3637 14.2712 14.6704 14.2712C13.8201 14.2712 13.1523 14.5855 12.667 15.214C12.1864 15.8425 11.9461 16.7368 11.9461 17.8968V18.8742C11.9461 19.9695 12.1748 20.8406 12.6324 21.4876C13.0899 22.1347 13.73 22.4582 14.5526 22.4582C15.292 22.4582 15.8582 22.2918 16.251 21.959C16.6484 21.6217 16.9119 21.037 17.0413 20.2052H18.3792ZM23.1139 23.5465C22.0972 23.5465 21.2699 23.2138 20.6322 22.5483C19.9944 21.8782 19.6755 20.9839 19.6755 19.8655V19.6298C19.6755 18.8858 19.8165 18.2226 20.0984 17.6403C20.3849 17.0533 20.7824 16.5958 21.2907 16.2677C21.8037 15.9349 22.3583 15.7686 22.9544 15.7686C23.9296 15.7686 24.6875 16.0898 25.2282 16.7321C25.7689 17.3745 26.0393 18.2942 26.0393 19.4912V20.0249H20.958C20.9765 20.7644 21.1914 21.3629 21.6027 21.8204C22.0186 22.2733 22.5454 22.4997 23.1832 22.4997C23.6361 22.4997 24.0197 22.4073 24.334 22.2225C24.6482 22.0376 24.9232 21.7927 25.1589 21.4876L25.9422 22.0977C25.3137 23.0636 24.3709 23.5465 23.1139 23.5465ZM22.9544 16.8223C22.4368 16.8223 22.0024 17.0117 21.6512 17.3907C21.3 17.765 21.0827 18.2919 20.9996 18.9712H24.7568V18.8742C24.7199 18.2226 24.5442 17.7188 24.23 17.363C23.9157 17.0025 23.4905 16.8223 22.9544 16.8223ZM31.1553 17.058C30.9612 17.0256 30.7509 17.0094 30.5244 17.0094C29.6833 17.0094 29.1126 17.3676 28.8122 18.0839V23.4079H27.5297V15.9072H28.7775L28.7983 16.7737C29.2189 16.1036 29.815 15.7686 30.5868 15.7686C30.8364 15.7686 31.0259 15.8009 31.1553 15.8656V17.058ZM34.4273 14.091V15.9072H35.8276V16.8985H34.4273V21.55C34.4273 21.8504 34.4897 22.0769 34.6144 22.2294C34.7392 22.3773 34.9518 22.4512 35.2522 22.4512C35.4001 22.4512 35.6034 22.4235 35.8622 22.368V23.4079C35.5249 23.5003 35.1967 23.5465 34.8779 23.5465C34.3048 23.5465 33.8727 23.3732 33.5815 23.0266C33.2904 22.68 33.1448 22.1878 33.1448 21.55V16.8985H31.7792V15.9072H33.1448V14.091H34.4273ZM38.7252 23.4079H37.4428V15.9072H38.7252V23.4079ZM37.3388 13.9177C37.3388 13.7097 37.4012 13.5341 37.526 13.3908C37.6554 13.2475 37.8449 13.1759 38.0944 13.1759C38.344 13.1759 38.5335 13.2475 38.6629 13.3908C38.7923 13.5341 38.857 13.7097 38.857 13.9177C38.857 14.1256 38.7923 14.2989 38.6629 14.4376C38.5335 14.5762 38.344 14.6455 38.0944 14.6455C37.8449 14.6455 37.6554 14.5762 37.526 14.4376C37.4012 14.2989 37.3388 14.1256 37.3388 13.9177ZM41.2139 23.4079V16.8985H40.0285V15.9072H41.2139V15.2694C41.2139 14.433 41.4519 13.7813 41.9279 13.3146C42.4086 12.8478 43.0856 12.6144 43.9591 12.6144C44.4767 12.6144 45.1306 12.7554 45.9209 13.0373L45.706 14.1187C45.1283 13.8876 44.5783 13.7721 44.0561 13.7721C43.5062 13.7721 43.1087 13.8969 42.8638 14.1464C42.6235 14.3914 42.5033 14.7611 42.5033 15.2556V15.9072H44.0353V16.8985H42.5033V23.4079H41.2139ZM46.5586 23.4079H45.2693V15.9072H46.5586V23.4079ZM51.7578 23.5465C50.7411 23.5465 49.9138 23.2138 49.2761 22.5483C48.6383 21.8782 48.3194 20.9839 48.3194 19.8655V19.6298C48.3194 18.8858 48.4604 18.2226 48.7423 17.6403C49.0288 17.0533 49.4263 16.5958 49.9346 16.2677C50.4476 15.9349 51.0022 15.7686 51.5984 15.7686C52.5735 15.7686 53.3314 16.0898 53.8721 16.7321C54.4129 17.3745 54.6832 18.2942 54.6832 19.4912V20.0249H49.6019C49.6204 20.7644 49.8353 21.3629 50.2466 21.8204C50.6625 22.2733 51.1894 22.4997 51.8271 22.4997C52.28 22.4997 52.6636 22.4073 52.9779 22.2225C53.2921 22.0376 53.5671 21.7927 53.8028 21.4876L54.5862 22.0977C53.9576 23.0636 53.0149 23.5465 51.7578 23.5465ZM51.5984 16.8223C51.0808 16.8223 50.6463 17.0117 50.2951 17.3907C49.9439 17.765 49.7267 18.2919 49.6435 18.9712H53.4007V18.8742C53.3638 18.2226 53.1882 17.7188 52.8739 17.363C52.5596 17.0025 52.1345 16.8223 51.5984 16.8223ZM55.8617 19.5951C55.8617 18.4444 56.1344 17.5201 56.6797 16.8223C57.225 16.1198 57.939 15.7686 58.8217 15.7686C59.6998 15.7686 60.3954 16.069 60.9083 16.6698V12.76H62.1908V23.4079H61.0123L60.9499 22.6037C60.4369 23.2323 59.7229 23.5465 58.8079 23.5465C57.939 23.5465 57.2296 23.1907 56.6797 22.479C56.1344 21.7672 55.8617 20.8383 55.8617 19.6922V19.5951ZM57.1441 19.7407C57.1441 20.5911 57.3198 21.2566 57.671 21.7372C58.0222 22.2178 58.5075 22.4582 59.1268 22.4582C59.9401 22.4582 60.534 22.0931 60.9083 21.3629V17.9176C60.5248 17.2105 59.9355 16.8569 59.1406 16.8569C58.5121 16.8569 58.0222 17.0995 57.671 17.5848C57.3198 18.0701 57.1441 18.7887 57.1441 19.7407Z" fill="#706A6A"/>
    </svg>
