<svg width="38" height="39" viewBox="0 0 38 39" fill="none" xmlns="http://www.w3.org/2000/svg">
    <path d="M34.7107 27.2763V31.998C34.7125 32.4363 34.6225 32.8702 34.4465 33.2718C34.2704 33.6734 34.0123 34.034 33.6885 34.3303C33.3647 34.6266 32.9824 34.8522 32.5662 34.9926C32.1499 35.1331 31.7088 35.1852 31.2712 35.1458C26.4162 34.6195 21.7526 32.9646 17.6551 30.3139C13.843 27.8975 10.611 24.6734 8.18857 20.8706C5.52211 16.7647 3.86273 12.0899 3.34484 7.22504C3.30541 6.78981 3.35726 6.35115 3.49709 5.93701C3.63692 5.52286 3.86167 5.1423 4.15702 4.81955C4.45236 4.49679 4.81185 4.23892 5.21258 4.06235C5.61331 3.88578 6.0465 3.79438 6.48458 3.79397H11.2179C11.9836 3.78645 12.7259 4.05693 13.3064 4.55499C13.887 5.05306 14.2662 5.74471 14.3734 6.50105C14.5732 8.01209 14.9437 9.49572 15.4778 10.9237C15.6901 11.487 15.736 12.0992 15.6102 12.6878C15.4844 13.2764 15.192 13.8166 14.7678 14.2446L12.7641 16.2434C15.0101 20.1837 18.2806 23.4462 22.2306 25.6867L24.2344 23.6879C24.6634 23.2647 25.205 22.9731 25.795 22.8476C26.385 22.722 26.9988 22.7679 27.5635 22.9796C28.9949 23.5125 30.4822 23.8821 31.997 24.0813C32.7634 24.1892 33.4634 24.5743 33.9637 25.1634C34.4641 25.7525 34.7299 26.5045 34.7107 27.2763Z" stroke="#706A6A" stroke-width="2" stroke-linecap="round" stroke-linejoin="round"/>
    </svg>
