<svg width="91" height="91" viewBox="0 0 91 91" fill="none" xmlns="http://www.w3.org/2000/svg">
    <path d="M60.6667 62.5625V58.7708C60.6667 56.7596 59.8677 54.8308 58.4456 53.4086C57.0234 51.9865 55.0946 51.1875 53.0833 51.1875H37.9167C35.9054 51.1875 33.9766 51.9865 32.5544 53.4086C31.1323 54.8308 30.3333 56.7596 30.3333 58.7708V62.5625" stroke="#111111" stroke-width="2" stroke-linecap="round" stroke-linejoin="round"/>
    <path d="M45.5 43.6042C49.6882 43.6042 53.0833 40.209 53.0833 36.0208C53.0833 31.8327 49.6882 28.4375 45.5 28.4375C41.3118 28.4375 37.9167 31.8327 37.9167 36.0208C37.9167 40.209 41.3118 43.6042 45.5 43.6042Z" stroke="#111111" stroke-width="2" stroke-linecap="round" stroke-linejoin="round"/>
    <path d="M45.5 83.4167C66.4408 83.4167 83.4167 66.4408 83.4167 45.5C83.4167 24.5592 66.4408 7.58333 45.5 7.58333C24.5592 7.58333 7.58333 24.5592 7.58333 45.5C7.58333 66.4408 24.5592 83.4167 45.5 83.4167Z" stroke="#111111" stroke-width="2" stroke-linecap="round" stroke-linejoin="round"/>
    </svg>
