<svg width="66" height="66" viewBox="0 0 66 66" fill="none" xmlns="http://www.w3.org/2000/svg">
    <circle cx="33" cy="33" r="32" fill="#C6BFE1" stroke="#C6BFE1" stroke-width="2"/>
    <path d="M39.3333 21.6667H42.25C43.0235 21.6667 43.7654 21.9652 44.3124 22.4965C44.8594 23.0279 45.1667 23.7486 45.1667 24.5V44.3333C45.1667 45.0848 44.8594 45.8055 44.3124 46.3368C43.7654 46.8682 43.0235 47.1667 42.25 47.1667H24.75C23.9764 47.1667 23.2346 46.8682 22.6876 46.3368C22.1406 45.8055 21.8333 45.0848 21.8333 44.3333V24.5C21.8333 23.7486 22.1406 23.0279 22.6876 22.4965C23.2346 21.9652 23.9764 21.6667 24.75 21.6667H27.6667" stroke="white" stroke-width="2" stroke-linecap="round" stroke-linejoin="round"/>
    <path d="M37.875 18.8333H29.125C28.3196 18.8333 27.6667 19.4676 27.6667 20.25V23.0833C27.6667 23.8657 28.3196 24.5 29.125 24.5H37.875C38.6804 24.5 39.3333 23.8657 39.3333 23.0833V20.25C39.3333 19.4676 38.6804 18.8333 37.875 18.8333Z" stroke="white" stroke-width="2" stroke-linecap="round" stroke-linejoin="round"/>
    </svg>
