<svg width="66" height="66" viewBox="0 0 66 66" fill="none" xmlns="http://www.w3.org/2000/svg">
    <circle cx="33" cy="33" r="32" fill="#C6BFE1" stroke="#C6BFE1" stroke-width="2"/>
    <path d="M33 45C33 45 20.5 38 20.5 29.5C20.5003 27.9977 21.0208 26.5418 21.9732 25.3799C22.9255 24.218 24.2509 23.4218 25.724 23.1267C27.197 22.8315 28.7269 23.0557 30.0533 23.761C31.3798 24.4664 32.421 25.6093 33 26.9956L33 26.9956C33.579 25.6093 34.6202 24.4664 35.9467 23.761C37.2731 23.0557 38.8029 22.8315 40.276 23.1267C41.7491 23.4218 43.0745 24.218 44.0268 25.3799C44.9792 26.5418 45.4997 27.9977 45.5 29.5C45.5 38 33 45 33 45Z" stroke="white" stroke-width="2" stroke-linecap="round" stroke-linejoin="round"/>
    </svg>
